<svg xmlns="http://www.w3.org/2000/svg" viewBox="0 0 512 512">
  <g fill="#ffffff">
    <path d="M55.542 281.347v118.61c0 32.571 24.824 61.89 64.435 82.394V333.454c-28.551-13.583-50.881-31.457-64.435-52.107z"/>
    <path d="M144.445 493.174c28.181 10.588 61.444 17.252 97.294 18.657V361.06c-35.679-1.318-68.73-7.542-97.294-17.582v149.696z"/>
    <path d="M266.201 512c37.407-1.047 72.109-7.842 101.354-18.819V343.479c-29.649 10.42-64.12 16.732-101.354 17.721V512z"/>
    <path d="M392.024 333.454v148.882c39.611-20.489 64.435-49.808 64.435-82.379v-118.61c-14.453 20.65-36.787 38.524-64.435 52.107z"/>
    <path d="M256.542 251.618c-7.667 8.794-6.744 22.129 2.043 29.788 8.787 7.674 22.133 6.751 29.792-2.036 7.66-8.802 6.744-22.136-2.043-29.803-8.794-7.659-22.132-6.737-29.792 2.051z"/>
    <path d="M318.378 195.666l-29.368 41.46 9.289 8.091 37.048-34.767c10.838-10.156 21.151-20.855 30.909-32.043l78.641-90.244c4.671-5.36 4.107-13.474-1.245-18.145l-.952-.835c-5.352-4.664-13.473-4.1-18.145 1.246l-78.64 90.243c-11.796 13.248-20.982 24.92-29.582 37.039z"/>
    <path d="M211.197 221.009c-10.731-4.554-23.136.454-27.691 11.189-4.554 10.734.458 23.139 11.189 27.693 10.732 4.555 23.128-.454 27.69-11.188 4.555-10.735-.45-23.124-11.188-27.694z"/>
    <path d="M278.649 134.31c-2.212 5.214-4.57 10.384-6.986 15.539 19.903.937 39.322 3.617 57.453 7.872 1.889-2.256 3.782-4.504 5.708-6.715l14.967-17.179c-20.166-5.99-42.361-10.09-65.874-11.928l-5.268 12.411z"/>
    <path d="M456.458 232.974c0-29.122-19.844-55.652-52.363-75.598l-18.468 21.191c.531.278 1.08.557 1.6.85 28.02 15.677 44.093 35.207 44.093 53.557 0 18.365-16.073 37.887-44.093 53.572-34.017 19.024-81.844 29.95-131.231 29.95-49.376 0-97.207-10.926-131.22-29.95-28.024-15.685-44.1-35.207-44.1-53.572 0-18.35 16.076-37.88 44.1-53.557 23.706-13.268 54.132-22.583 87.109-27.013 3.211-10.098 6.777-20.152 10.695-30.03-94.794 8.912-167.038 55.022-167.038 110.6 0 61.956 89.749 112.181 200.455 112.181 110.72 0 200.461-50.226 200.461-112.181z"/>
    <path d="M221.218 213.16l24.447-44.536c7.15-13.034 13.638-26.391 19.438-40.069l46.768-110.175c2.779-6.547-.271-14.089-6.81-16.864l-1.164-.49c-6.539-2.775-14.088.278-16.86 6.81l-46.769 110.176c-5.808 13.678-10.918 27.627-15.327 41.811l-15.059 48.526 11.336 4.811z"/>
  </g>
</svg>
